<svg xmlns="http://www.w3.org/2000/svg" viewBox="0 0 1200 675" width="1200" height="675" role="img">
  <defs>
    <linearGradient id="bgf" x1="0" y1="0" x2="1" y2="1">
      <stop offset="0%" stop-color="#6D28D9"/><stop offset="55%" stop-color="#7C3AED"/><stop offset="100%" stop-color="#A855F7"/>
    </linearGradient>
    <linearGradient id="sheenf" x1="0" y1="0" x2="0" y2="1">
      <stop offset="0%" stop-color="#ffffff" stop-opacity="0.30"/>
      <stop offset="100%" stop-color="#ffffff" stop-opacity="0.04"/>
    </linearGradient>
    <linearGradient id="skyf" x1="0" y1="0" x2="1" y2="0">
      <stop offset="0%" stop-color="#7DD3FC"/><stop offset="100%" stop-color="#38BDF8"/>
    </linearGradient>
  </defs>
  <rect width="1200" height="675" fill="url(#bgf)"/>
  <circle cx="1045" cy="120" r="210" fill="#ffffff" opacity="0.07"/>
  <circle cx="150" cy="610" r="170" fill="#ffffff" opacity="0.06"/>
  <line x1="320" y1="190" x2="560" y2="150" stroke="#ffffff" stroke-opacity="0.18" stroke-width="2"/>
  <line x1="320" y1="190" x2="560" y2="260" stroke="#ffffff" stroke-opacity="0.18" stroke-width="2"/>
  <line x1="320" y1="190" x2="560" y2="370" stroke="#ffffff" stroke-opacity="0.18" stroke-width="2"/>
  <line x1="320" y1="190" x2="560" y2="480" stroke="#ffffff" stroke-opacity="0.18" stroke-width="2"/>
  <line x1="320" y1="190" x2="560" y2="580" stroke="#ffffff" stroke-opacity="0.18" stroke-width="2"/>
  <line x1="320" y1="300" x2="560" y2="150" stroke="#ffffff" stroke-opacity="0.18" stroke-width="2"/>
  <line x1="320" y1="300" x2="560" y2="260" stroke="#ffffff" stroke-opacity="0.18" stroke-width="2"/>
  <line x1="320" y1="300" x2="560" y2="370" stroke="#ffffff" stroke-opacity="0.18" stroke-width="2"/>
  <line x1="320" y1="300" x2="560" y2="480" stroke="#ffffff" stroke-opacity="0.18" stroke-width="2"/>
  <line x1="320" y1="300" x2="560" y2="580" stroke="#ffffff" stroke-opacity="0.18" stroke-width="2"/>
  <line x1="320" y1="410" x2="560" y2="150" stroke="#ffffff" stroke-opacity="0.18" stroke-width="2"/>
  <line x1="320" y1="410" x2="560" y2="260" stroke="#ffffff" stroke-opacity="0.18" stroke-width="2"/>
  <line x1="320" y1="410" x2="560" y2="370" stroke="#ffffff" stroke-opacity="0.18" stroke-width="2"/>
  <line x1="320" y1="410" x2="560" y2="480" stroke="#ffffff" stroke-opacity="0.18" stroke-width="2"/>
  <line x1="320" y1="410" x2="560" y2="580" stroke="#ffffff" stroke-opacity="0.18" stroke-width="2"/>
  <line x1="320" y1="520" x2="560" y2="150" stroke="#ffffff" stroke-opacity="0.18" stroke-width="2"/>
  <line x1="320" y1="520" x2="560" y2="260" stroke="#ffffff" stroke-opacity="0.18" stroke-width="2"/>
  <line x1="320" y1="520" x2="560" y2="370" stroke="#ffffff" stroke-opacity="0.18" stroke-width="2"/>
  <line x1="320" y1="520" x2="560" y2="480" stroke="#ffffff" stroke-opacity="0.18" stroke-width="2"/>
  <line x1="320" y1="520" x2="560" y2="580" stroke="#ffffff" stroke-opacity="0.18" stroke-width="2"/>
  <line x1="560" y1="150" x2="800" y2="210" stroke="#ffffff" stroke-opacity="0.18" stroke-width="2"/>
  <line x1="560" y1="150" x2="800" y2="330" stroke="#ffffff" stroke-opacity="0.18" stroke-width="2"/>
  <line x1="560" y1="150" x2="800" y2="450" stroke="#ffffff" stroke-opacity="0.18" stroke-width="2"/>
  <line x1="560" y1="260" x2="800" y2="210" stroke="#ffffff" stroke-opacity="0.18" stroke-width="2"/>
  <line x1="560" y1="260" x2="800" y2="330" stroke="#ffffff" stroke-opacity="0.18" stroke-width="2"/>
  <line x1="560" y1="260" x2="800" y2="450" stroke="#ffffff" stroke-opacity="0.18" stroke-width="2"/>
  <line x1="560" y1="370" x2="800" y2="210" stroke="#ffffff" stroke-opacity="0.18" stroke-width="2"/>
  <line x1="560" y1="370" x2="800" y2="330" stroke="#ffffff" stroke-opacity="0.18" stroke-width="2"/>
  <line x1="560" y1="370" x2="800" y2="450" stroke="#ffffff" stroke-opacity="0.18" stroke-width="2"/>
  <line x1="560" y1="480" x2="800" y2="210" stroke="#ffffff" stroke-opacity="0.18" stroke-width="2"/>
  <line x1="560" y1="480" x2="800" y2="330" stroke="#ffffff" stroke-opacity="0.18" stroke-width="2"/>
  <line x1="560" y1="480" x2="800" y2="450" stroke="#ffffff" stroke-opacity="0.18" stroke-width="2"/>
  <line x1="560" y1="580" x2="800" y2="210" stroke="#ffffff" stroke-opacity="0.18" stroke-width="2"/>
  <line x1="560" y1="580" x2="800" y2="330" stroke="#ffffff" stroke-opacity="0.18" stroke-width="2"/>
  <line x1="560" y1="580" x2="800" y2="450" stroke="#ffffff" stroke-opacity="0.18" stroke-width="2"/>
  <line x1="800" y1="210" x2="1000" y2="290" stroke="#ffffff" stroke-opacity="0.18" stroke-width="2"/>
  <line x1="800" y1="210" x2="1000" y2="400" stroke="#ffffff" stroke-opacity="0.18" stroke-width="2"/>
  <line x1="800" y1="330" x2="1000" y2="290" stroke="#ffffff" stroke-opacity="0.18" stroke-width="2"/>
  <line x1="800" y1="330" x2="1000" y2="400" stroke="#ffffff" stroke-opacity="0.18" stroke-width="2"/>
  <line x1="800" y1="450" x2="1000" y2="290" stroke="#ffffff" stroke-opacity="0.18" stroke-width="2"/>
  <line x1="800" y1="450" x2="1000" y2="400" stroke="#ffffff" stroke-opacity="0.18" stroke-width="2"/>
  <circle cx="320" cy="190" r="26" fill="#ffffff" opacity="0.95"/>
  <circle cx="320" cy="190" r="11" fill="#4C1D95" opacity="0.28"/>
  <circle cx="320" cy="300" r="26" fill="#ffffff" opacity="0.95"/>
  <circle cx="320" cy="300" r="11" fill="#4C1D95" opacity="0.28"/>
  <circle cx="320" cy="410" r="26" fill="#ffffff" opacity="0.95"/>
  <circle cx="320" cy="410" r="11" fill="#4C1D95" opacity="0.28"/>
  <circle cx="320" cy="520" r="26" fill="#ffffff" opacity="0.95"/>
  <circle cx="320" cy="520" r="11" fill="#4C1D95" opacity="0.28"/>
  <circle cx="560" cy="150" r="26" fill="url(#skyf)" opacity="0.95"/>
  <circle cx="560" cy="150" r="11" fill="#4C1D95" opacity="0.28"/>
  <circle cx="560" cy="260" r="26" fill="url(#skyf)" opacity="0.95"/>
  <circle cx="560" cy="260" r="11" fill="#4C1D95" opacity="0.28"/>
  <circle cx="560" cy="370" r="26" fill="url(#skyf)" opacity="0.95"/>
  <circle cx="560" cy="370" r="11" fill="#4C1D95" opacity="0.28"/>
  <circle cx="560" cy="480" r="26" fill="url(#skyf)" opacity="0.95"/>
  <circle cx="560" cy="480" r="11" fill="#4C1D95" opacity="0.28"/>
  <circle cx="560" cy="580" r="26" fill="url(#skyf)" opacity="0.95"/>
  <circle cx="560" cy="580" r="11" fill="#4C1D95" opacity="0.28"/>
  <circle cx="800" cy="210" r="26" fill="#ffffff" opacity="0.95"/>
  <circle cx="800" cy="210" r="11" fill="#4C1D95" opacity="0.28"/>
  <circle cx="800" cy="330" r="26" fill="#ffffff" opacity="0.95"/>
  <circle cx="800" cy="330" r="11" fill="#4C1D95" opacity="0.28"/>
  <circle cx="800" cy="450" r="26" fill="#ffffff" opacity="0.95"/>
  <circle cx="800" cy="450" r="11" fill="#4C1D95" opacity="0.28"/>
  <circle cx="1000" cy="290" r="26" fill="url(#skyf)" opacity="0.95"/>
  <circle cx="1000" cy="290" r="11" fill="#4C1D95" opacity="0.28"/>
  <circle cx="1000" cy="400" r="26" fill="url(#skyf)" opacity="0.95"/>
  <circle cx="1000" cy="400" r="11" fill="#4C1D95" opacity="0.28"/>
</svg>
