<svg xmlns="http://www.w3.org/2000/svg" viewBox="0 0 625 434" width="625" height="434" role="img" aria-label="in a double conversion UPS the load always runs through the UPS, so there is no gap; in a standby UPS the feed passes straight to the load and the UPS only takes over when it drops" font-family="Gaegu, ui-rounded, sans-serif" text-anchor="middle" preserveAspectRatio="xMidYMid meet">
  <text x="10" y="26" font-size="15" fill="#475569" text-anchor="start">double conversion (online)</text>
  <text x="10" y="204" font-size="15" fill="#475569" text-anchor="start">standby / line-interactive</text>
  <path d="M9.506892339363695 32.40011342488229 C158.69824099374935 32.33142279422842, 305.6185267971829 32.29700805700384, 614.9385292283446 32.58438142023981 M10.017158564142882 32.2610497410968 C234.51143017625438 32.123320054464415, 459.9625900253654 31.83978338544853, 615.2052845738456 31.931664099283516 M616.13201314006 31.006283836625517 C614.3785284613386 58.5118276109919, 617.2181588445917 87.25180036332459, 615.7275339284912 160.79026219751685 M615.3225396330469 31.31062680380419 C615.5021540511243 79.38886662321165, 615.0441133517616 125.25941496388988, 615.4749952937476 160.09782449202612 M614.7004989496619 160.3847991272062 C387.46055507304146 160.12608704763687, 159.40084229078144 160.04564096885957, 10.10440222658217 159.59987934790553 M615.2715397606418 159.89578593809156 C391.94500900017096 161.10821581810526, 168.41764919154346 160.69690746635013, 10.228218855671585 160.35238212306052 M9.26195137295872 159.2547240903601 C9.624023711802066 128.89553047325464, 9.895266872765124 96.2532731583342, 11.16129486951977 33.26464658882469 M9.94658828927204 159.36331145064906 C9.139676580440254 117.20160554843024, 9.88884279788658 75.85394278662278, 9.981797512900084 31.747745199967177" fill="none" stroke="#94a3b8" stroke-width="1.3" stroke-linecap="round" stroke-linejoin="round" stroke-dasharray="9 7"/>
  <text x="312.5" y="52" font-size="13" fill="#64748b">everyday path</text>
  <path d="M10.112270380109548 210.68351826801896 C156.75635004449634 211.22775098517315, 304.7900450348109 211.22721947863477, 615.3216239176691 210.4681298030913 M10.300970910266042 210.00680945210158 C242.72901195470243 209.57222842026874, 476.3152983146906 210.14595200587436, 615.306599965766 210.2869474940747 M614.061863240158 209.20497398609115 C613.0963427663173 267.31101455804884, 612.8982458802873 324.56673348532706, 616.5542250736546 422.79543774158185 M615.5425922821621 210.66060792513957 C615.0354122333275 258.1147870096301, 615.1253856770005 307.5925667972599, 614.4194306148485 423.7243677497985 M614.9491737900674 424.3280203451216 C415.5928490595147 424.70816692822797, 217.3739814517647 425.81398887627944, 10.219696456044913 423.3676297439635 M614.7922354681045 423.878280871436 C435.2654768938944 424.9059803452797, 256.38249586179853 425.05873667624667, 9.704284353926777 424.2300483994931 M10.365818037941866 425.1437998917739 C9.624413318794604 354.9617382405573, 11.037330842127604 282.08115808006164, 9.141940177340283 208.62170071278373 M9.900849369718262 423.8217903902409 C9.662753230923943 348.83533416206257, 9.419477590059406 273.8363801526826, 9.636346217385883 210.7602294339347" fill="none" stroke="#94a3b8" stroke-width="1.3" stroke-linecap="round" stroke-linejoin="round" stroke-dasharray="9 7"/>
  <text x="312.5" y="230" font-size="13" fill="#64748b">everyday path</text>
  <path d="M25.008730337023735 60.422098472714424 L139.11537639796734 62.33410628139973 L137.64430944621563 120.46127827465534 L26.363595888018608 121.13711054623127" fill="#ecfdf5"/>
  <path d="M24.01963599026203 63.8488859385252 C52.82693413794041 60.42617088782787, 78.9153144389391 60.66485125052929, 137.74751122295856 62.11424343287945 M25.86397071927786 61.730590261518955 C51.333105514943604 60.39979300028086, 77.8432177886367 60.755790801107885, 138.19187804311514 62.145019210875034 M137.82891304790974 63.461735650897026 C137.4425979870558 83.02239149808884, 139.8485785740614 101.44527573883533, 136.88035090267658 123.41842310130596 M138.61312171071768 61.99809805303812 C138.00475687235593 81.57135143131018, 136.84809607714413 102.50267518311739, 137.2927975282073 122.62948409467936 M137.00752909481525 122.43693582713604 C105.66988789141178 122.7184769963026, 74.84086790382861 123.14053748595714, 27.441611602902412 122.03368370234966 M138.3679108247161 121.42341987043619 C93.40298755019903 122.5588095961213, 48.70120972245931 121.64220913034677, 26.47528287023306 122.37942901998758 M25.376284912228584 122.64899818599224 C26.23205420434475 107.89933171868324, 25.57428357064724 94.14372958242893, 24.955219104886055 61.38141195476055 M26.104656420648098 121.87008110433817 C26.814892158210277 102.62258236855268, 25.179608926475048 85.45629853755236, 25.73908992856741 61.60994187742472" fill="none" stroke="#15803d" stroke-width="1.9" stroke-linecap="round" stroke-linejoin="round"/>
  <text x="82" y="89" font-size="16" fill="#15803d">utility grid</text>
  <text x="82" y="108" font-size="13" fill="#64748b">incoming feed</text>
  <path d="M224.42870510742068 60.02424030378461 L362.10370398685336 63.895149398595095 L362.75661958381534 120.78393035009503 L223.1019294373691 123.23587124422193" fill="#fef2f2"/>
  <path d="M225.20726745203137 62.007177006453276 C254.78230678476393 61.285465567827224, 290.21689277887344 62.40994641137123, 363.34963493421674 62.227909576147795 M223.8977659996599 61.06256958283484 C274.5160696089268 61.101546415671706, 325.64963772930207 61.66342765985429, 361.77970249019563 62.01890423335135 M363.4938333518803 62.82972861453891 C362.0805989436805 82.79015724360943, 362.79787110611795 103.39219887927175, 362.56593792513013 120.38958395645022 M361.8530576881021 62.94766237773001 C362.92447635047137 78.80313979648054, 362.75194504372774 95.36591740138829, 362.3528587874025 122.84652670659125 M361.5099105127156 120.89035929366946 C311.6024413656443 121.88901785296201, 260.117263020575 124.27339402121305, 224.20132737234235 120.27359033748507 M361.33418822847307 122.59997662343085 C316.76524251028894 120.7681618246287, 272.0297986079007 122.23738788692653, 224.45374602638185 122.77443947829306 M223.14331631734967 121.02195478603244 C225.22865541800857 96.3052586093545, 225.97277541980148 75.91352504864335, 224.5381519086659 63.13078321143985 M224.62674111686647 121.4204522613436 C224.4024528913945 103.4920927863568, 223.67041612200438 85.23599931783974, 223.1394320782274 61.52584811486304" fill="none" stroke="#dc2626" stroke-width="1.9" stroke-linecap="round" stroke-linejoin="round"/>
  <text x="293" y="89" font-size="16" fill="#dc2626">UPS</text>
  <text x="293" y="108" font-size="13" fill="#64748b">always in the path</text>
  <text x="293" y="140" font-size="13" fill="#64748b">* converts AC → DC → AC all day</text>
  <path d="M458.70558007247746 62.0556785594672 L588.6597440410405 61.50460506789386 L587.7912323046476 121.57457764260471 L459.4373861718923 123.06790341250598" fill="#eff6ff"/>
  <path d="M458.56818009726703 61.621475176885724 C487.2895351378247 59.70502762168646, 515.5663234516978 62.908121567666534, 589.9916464816779 61.76731707341969 M459.1565585816279 61.23929376062006 C499.005050662905 61.230041700340806, 539.8176016202196 61.994730937220154, 588.0198914790526 61.18158534821123 M588.9558689128608 63.74829270131886 C588.600485798791 80.95850361138582, 587.6475701899082 102.60720825009048, 589.4619292151183 123.78514297492802 M588.9092821860686 62.96040371712297 C588.7810557560995 76.27501623425633, 588.7765388863161 90.15082317125052, 588.0546366060153 122.36360896285623 M590.231281651184 121.19658430106938 C551.3335984880105 120.26967343494296, 518.9917148090899 119.25811818048358, 460.18242366425693 122.77269734628499 M589.5345043027773 121.05719936545938 C557.3921536933631 122.17404602784663, 524.8630929170176 120.71918608564883, 458.6756558800116 121.58498404081911 M457.4292693864554 121.26255358941853 C457.8845783380419 100.81296088919044, 459.5920516756922 75.67063633166254, 458.27977777831256 60.15313692577183 M459.7340376758948 122.73265311773866 C458.9542909379676 109.34095933753997, 459.80826978046446 97.53603370767087, 459.4919886076823 62.78208143170923" fill="none" stroke="#1d4ed8" stroke-width="1.9" stroke-linecap="round" stroke-linejoin="round"/>
  <text x="524" y="89" font-size="16" fill="#1d4ed8">server</text>
  <text x="524" y="108" font-size="13" fill="#64748b">never sees a gap</text>
  <path d="M26.530971908941865 281.54501653276384 L136.49305304326117 281.16345125995576 L137.9557693246752 343.9410713966936 L24.45738979615271 343.66285008750856" fill="#ecfdf5"/>
  <path d="M25.247409170493484 282.6880688909441 C47.60997426323593 283.7354807219654, 70.04584830068052 283.2129636964947, 137.95343280397356 283.1548806075007 M25.606956702657044 282.40699395816773 C59.95946083832532 282.21081208830327, 96.81035994011908 282.3046554589793, 138.8154935957864 283.6913622049615 M138.3225796278566 282.2412162665278 C138.60026685215533 304.10377732664347, 138.1618835709244 329.37438320182264, 139.60490292869508 341.2692710403353 M138.08657432813197 282.02939325850457 C138.28654815439134 301.22524498868734, 137.6883298027888 318.5743588572368, 138.76222566980869 342.39530733507127 M138.7789966519922 341.94738831557333 C95.92122331969439 343.3643343937546, 51.40421498678623 344.1284346473366, 26.20787108503282 341.1451456192881 M138.04916791338474 342.3843469945714 C102.39831848610191 343.0463883734271, 67.23420631010084 341.6867729580924, 26.069405627436936 343.2790420083329 M25.236228113994002 342.96729060448706 C27.46303641028702 326.0731037966907, 25.44329708047211 311.4152088742703, 27.09088951908052 281.3279755357653 M26.968644929118454 342.45937347691506 C25.706779201366007 318.913981215097, 26.45597105178982 296.0325322439894, 26.122073751874268 283.6220767227933" fill="none" stroke="#15803d" stroke-width="1.9" stroke-linecap="round" stroke-linejoin="round"/>
  <text x="82" y="310" font-size="16" fill="#15803d">utility grid</text>
  <text x="82" y="329" font-size="13" fill="#64748b">incoming feed</text>
  <path d="M205.1244819443673 240.86793655343354 L382.16537079028785 238.61341798491776 L382.2995499651879 299.57636958546937 L203.9362601917237 300.2157146949321" fill="#ffffff"/>
  <path d="M203.26252567954361 238.3770772498101 C242.0282057034783 241.38062987881153, 279.87530853319913 242.58764306860417, 382.34443277306855 238.11438879184425 M204.85506890621036 240.0311716804281 C255.79132030075417 239.64290429696442, 305.2823650531471 239.4656228874624, 382.5251782676205 240.88015630934387 M383.40513938851655 239.48342308215797 C382.71481076948345 256.42321019619703, 384.1884435223788 276.30107523687184, 381.22246098704636 299.41430571489036 M382.0443740626797 239.98037961218506 C382.5711364845559 257.3775759404525, 380.79913953941315 275.1665273727849, 381.7708942135796 300.83458370063454 M381.94910693354905 299.3407893460244 C324.7828260053881 299.23451838902383, 267.8977969845757 299.98128453902154, 206.966015400365 301.5293910186738 M382.16036741342396 299.09541338775307 C318.6799579714425 299.1688367580026, 254.6847007740289 298.1908866320699, 205.09353639092296 299.09512624237686 M204.24483114667237 299.2442810218781 C205.72552510403096 277.68183040991426, 206.2180596818775 253.78536299802363, 205.3493269700557 238.36217155866325 M205.49220301117748 299.13155254814774 C204.4918319739029 281.2257636738941, 206.17232869636268 261.33312882948667, 204.49221978988498 240.94147753808647" fill="none" stroke="#dc2626" stroke-width="1.9" stroke-linecap="round" stroke-linejoin="round" stroke-dasharray="9 6"/>
  <text x="293.5" y="267" font-size="16" fill="#64748b">transfer switch</text>
  <text x="293.5" y="286" font-size="13" fill="#64748b">passes it straight through</text>
  <path d="M229.55734721198678 327.7072698138654 L355.6211850978434 324.2258579991758 L356.3914782144129 387.0448879264295 L232.78509667888284 386.4017863534391" fill="#fef2f2"/>
  <path d="M231.38001611456275 325.7578660584986 C256.39195343572646 326.1225952077657, 281.86216941289604 327.5336582828313, 357.40897860750556 326.80636290088296 M230.74352957494557 325.91611219756305 C268.79931682441384 324.7112513780594, 305.8536563962698 325.2272669672966, 355.14730794914067 325.70201296918094 M355.70271888002753 327.94305780902505 C357.31161323919895 343.2700736671686, 354.09267929926517 359.3180711232126, 357.4083438180387 384.1644405461848 M355.7839690018445 325.96768803708255 C355.87021990396084 343.51688763685524, 356.2718268809468 360.6160883810371, 355.17769374139607 386.4545909296721 M357.2908597253263 385.08980122581124 C323.81039359699935 385.65225653909147, 293.46081354655325 384.6159548070282, 229.10906019434333 384.44464114680886 M355.2404259610921 386.60156787745655 C310.8280276386067 385.81331756338477, 264.50170605257154 385.5281742475927, 230.25867958553135 385.72227318398654 M229.48757829889655 387.8920660354197 C230.66783676221968 367.71299558132887, 231.9049346216023 350.5705805532634, 231.78786113485694 324.8448406793177 M230.4423071909696 385.6104152929038 C231.30729104436935 369.7067281547934, 231.04185624279083 354.99012712202966, 230.65912534482777 325.63952018134296" fill="none" stroke="#dc2626" stroke-width="1.9" stroke-linecap="round" stroke-linejoin="round"/>
  <text x="293.5" y="353" font-size="16" fill="#dc2626">UPS</text>
  <text x="293.5" y="372" font-size="13" fill="#64748b">waits on battery</text>
  <text x="293.5" y="404" font-size="13" fill="#64748b">* takes over when the feed drops</text>
  <path d="M450.2057693656534 282.69304945506155 L599.190245276317 283.3297330979258 L600.5463699754328 344.82508411444724 L447.6352884825319 343.01034029759467" fill="#eff6ff"/>
  <path d="M448.6573466900736 282.78207654319704 C485.9297138371505 280.24441932470353, 521.7120545102283 281.7516098502353, 601.6801181081682 283.9811993893236 M449.7666033534333 283.7104735793546 C489.61185042047873 282.8463126276582, 531.6463093329221 282.944420531854, 599.7295499769971 282.1069396259263 M598.0217180494219 281.3519636448473 C599.7308915843814 293.97060533612967, 599.0115819563716 308.67165021039546, 601.8825269583613 342.45880705676973 M600.5877760378644 283.5371237518266 C599.8451281779631 301.8677406264469, 600.7459860139712 319.4026545668021, 599.9260001806542 342.95472036022693 M600.4785061720759 344.9714322742075 C549.0790297060273 345.11359587612003, 499.38496133629235 342.6738297671303, 450.2916714195162 341.2710914667696 M600.4437797693536 342.69324646610767 C556.4859126049093 343.5390121074021, 510.85684468820693 343.002291444093, 448.24221185129136 343.80827368516475 M447.95990099944174 344.3811440523714 C450.56909212760627 324.8561703450978, 450.0065169661492 305.7162121254951, 450.1620070580393 282.2426986154169 M449.70201567094773 343.99845231790096 C449.2610688677058 323.3683977415785, 448.2812218239531 304.2571543911472, 449.86882829945534 282.2108430089429" fill="none" stroke="#1d4ed8" stroke-width="1.9" stroke-linecap="round" stroke-linejoin="round"/>
  <text x="524.5" y="310" font-size="16" fill="#1d4ed8">server</text>
  <text x="524.5" y="329" font-size="13" fill="#64748b">brief gap on transfer</text>
  <path d="M142.54550405349582 92.82616629693658 C158.5085536211729 92.68833535290342, 175.6601123670116 90.9906842229424, 219.87194962706417 93.28044801447541 M141.30829486595468 91.30147449774668 C173.1523611511104 92.49204532981906, 203.0764175371267 92.72303799570595, 220.36963172005488 91.49275876982138" fill="none" stroke="#131A2E" stroke-width="1.7" stroke-linecap="round" stroke-linejoin="round"/>
  <path d="M220.24340569670312 91.93638555635698 C218.35542500135338 91.00390121638144, 216.68600399884502 90.62497950780534, 212.12715939371242 88.08739015389305 M219.89561254421716 92.21312190589961 C217.04388571438912 90.59551364928411, 213.98881996856986 89.36368609305633, 211.95380798933888 88.44174963903218" fill="none" stroke="#131A2E" stroke-width="1.7" stroke-linecap="round" stroke-linejoin="round"/>
  <path d="M219.92575195757672 91.77274418594315 C218.25554991081714 92.53798263430463, 215.8773183799243 93.80629845928273, 211.86155235142775 95.7095401850615 M219.9227618238423 91.88599869175815 C217.49570665157844 93.11358446229774, 214.8158843539419 94.33584051517751, 211.73500576321362 95.47918050154972" fill="none" stroke="#131A2E" stroke-width="1.7" stroke-linecap="round" stroke-linejoin="round"/>
  <path d="M366.8734501194209 91.91071456559003 C386.29485132265836 93.28490235317666, 408.9174072347581 91.15935612429101, 454.0912812422961 92.03684687502682 M365.96229573432356 91.97739153262228 C397.40666359253225 92.63020450493227, 427.64657531213015 92.03652248402963, 455.5417595559731 92.6755263781175" fill="none" stroke="#131A2E" stroke-width="1.7" stroke-linecap="round" stroke-linejoin="round"/>
  <path d="M455.3552745574154 91.95816099857912 C453.1284952439828 91.33531794585757, 451.52164829852853 90.61268138053268, 446.6792364138118 87.99722737138231 M455.01978619950825 92.19963646200486 C453.15422136612534 91.17038673644576, 451.53940678274756 90.37726092380171, 446.980091751128 88.18521496024054" fill="none" stroke="#131A2E" stroke-width="1.7" stroke-linecap="round" stroke-linejoin="round"/>
  <path d="M454.6067891160492 92.31742081022821 C453.00251802803075 92.43623894239988, 451.4854598761463 93.26037112682287, 446.5586359192091 95.93044055975902 M455.0771696484415 91.95609991897363 C452.57078476760313 92.85042848932471, 450.42677022712616 94.28980782218258, 446.61943866244377 95.58965924059436" fill="none" stroke="#131A2E" stroke-width="1.7" stroke-linecap="round" stroke-linejoin="round"/>
  <path d="M141.64550928343087 312.1786204917356 C155.06443400127432 302.09666061540406, 170.21691746856635 293.87887689954874, 200.5671631561592 270.13271096181126 M141.75810672855005 312.5698938393034 C158.71544218068505 301.38434658496897, 175.21651477269393 289.23337956321683, 200.91448174035176 270.54808852011337" fill="none" stroke="#131A2E" stroke-width="1.7" stroke-linecap="round" stroke-linejoin="round"/>
  <path d="M201.0364315330982 269.9865341842175 C198.88470824702873 270.33028908043127, 196.92037958479477 270.7220253753984, 192.2370958486603 271.50301959619776 M200.80952161252497 269.8177581936121 C198.78198024816106 270.35665221418554, 196.38304617349658 271.15009911458253, 192.34374887440663 271.7512253980423" fill="none" stroke="#131A2E" stroke-width="1.7" stroke-linecap="round" stroke-linejoin="round"/>
  <path d="M201.27353447824717 269.88279946893454 C199.966138834923 271.91607785654077, 198.52511897027387 273.430857243701, 196.92487735290146 277.73649200588983 M201.11051472947003 269.9065062470734 C199.82600945740975 272.13278719427615, 198.45527068935937 274.3616039905912, 196.32986338052964 277.967031645929" fill="none" stroke="#131A2E" stroke-width="1.7" stroke-linecap="round" stroke-linejoin="round"/>
  <path d="M141.91635677870363 313.05806480292233 C161.31917394001886 322.2280786616807, 181.81694408918648 333.03412648803413, 228.1070402806625 355.9413878584281 M142.07892491938546 313.38478365568443 C159.8631204647568 321.4454172367859, 177.9039903363769 331.37371489570245, 226.89534259261563 356.68228814927863" fill="none" stroke="#131A2E" stroke-width="1.7" stroke-linecap="round" stroke-linejoin="round"/>
  <path d="M226.86687360983342 355.85602026898414 C225.44728420868424 354.0239651239646, 224.09739810046506 352.4646784704945, 220.97565080871757 349.19764068419335 M226.83372305789962 355.8457278727554 C225.0061866341283 353.34274597894307, 222.78358115451468 350.7800725885628, 221.14425856698256 348.912739893461" fill="none" stroke="#131A2E" stroke-width="1.7" stroke-linecap="round" stroke-linejoin="round"/>
  <path d="M226.88130830153824 356.0330235518515 C225.08012788492073 356.16517782639903, 222.9704621982548 355.3867054625296, 218.06917787268193 355.90953443865385 M227.0384551424533 356.0181813638657 C224.0645068184209 356.0750856478571, 220.98123803222285 355.79303526379863, 218.11026392019718 355.5741340484014" fill="none" stroke="#131A2E" stroke-width="1.7" stroke-linecap="round" stroke-linejoin="round"/>
  <path d="M385.20862062685194 269.72627876885235 C400.0396913264176 280.30017330972163, 413.005404128716 289.6259547104096, 445.1277685832232 312.11728076823056 M386.0849025124684 270.5291793620214 C406.0135300258631 284.8089905406738, 426.7998950563827 300.1983359911868, 445.35097598377615 313.5617128586397" fill="none" stroke="#131A2E" stroke-width="1.7" stroke-linecap="round" stroke-linejoin="round"/>
  <path d="M445.0103409890551 312.66988267931157 C444.2552503062009 310.9472898062175, 443.179278929578 309.07940658233673, 440.6934892433982 304.7892017954816 M445.03230936320034 312.90527104309297 C443.4223865874748 310.57449403941723, 442.4938507102276 308.1364121562669, 440.42514320617147 305.15763882404144" fill="none" stroke="#131A2E" stroke-width="1.7" stroke-linecap="round" stroke-linejoin="round"/>
  <path d="M445.01983749675566 312.9758058917243 C443.2551967064636 312.136941956171, 441.12611062814744 312.4018840321336, 435.97493767789877 311.0171428338819 M444.799896260933 313.0424114977708 C441.87170264359645 312.4271393692697, 438.1800956635021 311.7952721140088, 436.2976957783367 310.9734090732838" fill="none" stroke="#131A2E" stroke-width="1.7" stroke-linecap="round" stroke-linejoin="round"/>
  <path d="M359.07116049770264 356.38838460501285 C376.2024667064379 347.47457185882286, 394.482345770644 339.3538981733951, 444.29979319218546 312.1171799844131 M359.42245115367695 355.3396391403861 C394.33090860773444 338.7906762738419, 428.5598857700323 321.44213891287194, 445.5211335304193 313.43664687098936" fill="none" stroke="#131A2E" stroke-width="1.7" stroke-linecap="round" stroke-linejoin="round" stroke-dasharray="7 5"/>
  <path d="M445.2278314240742 312.65067148800006 C443.11350067403697 312.9312727007674, 440.8502435859793 313.58093340082576, 436.24822414596 313.8220163404932 M444.97077003193556 312.79021156022793 C442.2022051759995 313.3378116068324, 439.05601059758834 313.4088093644548, 435.98746195581646 313.5203359198514" fill="none" stroke="#131A2E" stroke-width="1.7" stroke-linecap="round" stroke-linejoin="round"/>
  <path d="M445.0192677062936 313.3714504989795 C443.25623842432054 314.5651379456323, 442.09888215127967 316.18435226307963, 439.7010264147441 320.2720119123884 M444.9398410470691 312.9171830704901 C443.27782644035665 315.4123482579677, 441.3592400064451 317.778184976565, 439.2413182669221 320.10000839913977" fill="none" stroke="#131A2E" stroke-width="1.7" stroke-linecap="round" stroke-linejoin="round"/>
</svg>
