<svg xmlns="http://www.w3.org/2000/svg" viewBox="0 0 607 740" width="607" height="740" role="img" aria-label="normally the utility runs through the UPS to the server while the generator is off; the instant the utility drops the battery carries the load and the generator starts; once it is up the generator feeds the UPS and the battery recharges" font-family="Gaegu, ui-rounded, sans-serif" text-anchor="middle" preserveAspectRatio="xMidYMid meet">
  <text x="10" y="26" font-size="15" fill="#475569" text-anchor="start">everyday</text>
  <text x="10" y="268" font-size="15" fill="#475569" text-anchor="start">the moment it drops</text>
  <text x="10" y="532" font-size="15" fill="#475569" text-anchor="start">generator up</text>
  <path d="M9.922452406808734 32.70012906439602 C129.50855180760846 31.13784442094259, 248.39821070242675 31.564435109171196, 597.4803534912318 32.26337525017559 M9.93807159487158 32.09395604606718 C155.73808023041116 32.5319333374796, 301.4635826785118 32.48904504063703, 596.8710447472706 32.32099550124258 M596.9087168751284 32.072279325313865 C598.4415525514528 72.25460245925933, 597.6904340881749 109.75342053491623, 595.8204066513106 225.04946541506797 M596.5914942906238 32.0209027021192 C595.7016011021353 85.24352751364933, 596.348561691425 137.42534107258547, 596.28828120986 223.42228115191682 M597.6420020961017 223.84318092234432 C399.41572335803886 224.74295821310704, 200.74626094993204 224.42799784542746, 9.515510938093065 224.26849269039928 M596.9936324817314 224.07352566000074 C387.6970781988092 224.8554491123732, 177.84817837297916 224.76050553293786, 9.786766843236983 224.14228989239783 M9.899018329195679 223.91376860458405 C10.054008230130375 184.57078852970153, 11.84621442810744 144.2683878691867, 10.917635214142502 32.76942187268287 M9.161993073020131 223.96762775471433 C9.060774779412895 171.73744794121012, 9.987534830067307 117.23087948253378, 10.856576813850552 32.01938137998805" fill="none" stroke="#94a3b8" stroke-width="1.3" stroke-linecap="round" stroke-linejoin="round" stroke-dasharray="9 7"/>
  <text x="303.5" y="52" font-size="13" fill="#64748b">who is carrying the load</text>
  <path d="M10.585569214373827 274.25154703900216 C132.08020937923342 274.2757356761368, 252.84586959414185 274.6868195699127, 596.6103266425431 273.3573621968925 M9.960812279209495 273.8095297215134 C162.71555358204992 273.8296286451827, 315.3209652797878 274.0447528588782, 597.0091517581791 273.6845190618187 M598.0007111719104 275.1284772068869 C596.6028436496935 344.9886210858671, 599.3657798127158 418.860078702722, 598.0094243488242 486.8316828883348 M596.8317900436342 274.46707290736117 C597.2189169609486 339.98949091276796, 596.1448604378654 404.7744916720756, 596.2834383719064 487.5141430964359 M596.5320882363617 487.83125741764906 C401.5276462331042 487.5698456705348, 205.19595279552044 487.4015353382365, 10.526224631816149 487.78920239731667 M596.9616887392849 488.357134020105 C451.40954099904746 489.26279135937705, 305.272433770895 489.3547684478284, 10.271957386955618 487.8950257346779 M9.028010711225557 487.8655841288274 C9.476365464125466 415.3620105764674, 8.959107337138958 343.32071196779265, 11.36977747905021 275.2744955527286 M10.69844298143567 488.06487544123536 C10.189822797157184 422.2933494586535, 10.932544875467524 358.1090507177703, 10.549138465919912 273.4835262600331" fill="none" stroke="#94a3b8" stroke-width="1.3" stroke-linecap="round" stroke-linejoin="round" stroke-dasharray="9 7"/>
  <text x="303.5" y="294" font-size="13" fill="#64748b">who is carrying the load</text>
  <path d="M9.937646819129586 537.7496062042565 C130.4631883987971 539.6144129755394, 250.22986378278586 539.8006378676788, 596.847426770702 537.297648556456 M10.286210631243884 538.3133807735518 C198.61528105484322 536.7026994920558, 387.44137673936785 536.8810617888754, 597.1838846470043 538.1357955448702 M598.5705537641421 537.8007489031181 C597.3349443061843 601.1408989613876, 594.8176312251583 665.6143076485023, 598.2429492378608 730.8026607757434 M596.7599728527479 538.2495749932714 C596.526123204618 578.5012198460288, 597.3854958114915 619.4182559532113, 596.654487768095 730.5790537131019 M596.3750050697475 730.3097217848152 C466.93939947349946 731.206527363343, 336.3129013143852 731.527456997914, 10.509042376056314 729.8245346143096 M596.9218852580711 729.9632923512534 C405.38486099397767 731.0535705348958, 213.9741173619032 731.314115372609, 10.014431328885257 729.6546766202524 M9.708720585145056 731.2513655370101 C11.188142845131457 652.7446752971038, 10.863834753729403 578.9948642915115, 10.134740402735769 536.8539804583415 M9.418421161454171 729.4078845542856 C10.194190856247396 654.2535830688663, 10.328096734910458 578.5900695663877, 9.289856204669922 537.8488556218333" fill="none" stroke="#94a3b8" stroke-width="1.3" stroke-linecap="round" stroke-linejoin="round" stroke-dasharray="9 7"/>
  <text x="303.5" y="558" font-size="13" fill="#64748b">who is carrying the load</text>
  <path d="M57.16673500277102 62.46531875990331 L134.4018592927605 63.14992084167898 L132.82894868589938 121.18201704882085 L56.144963631406426 120.53945161961019" fill="#ecfdf5"/>
  <path d="M56.69986500404775 62.18361038900912 C72.8352367721498 62.64545221690834, 91.3450191695243 62.325375930115584, 131.38628157041967 62.1976857278496 M56.813763563521206 62.18097473215312 C73.88481807019562 62.41997139879316, 90.15320400539787 61.102165780745445, 132.25117061007768 61.2565190596506 M131.0369034614414 61.36698723770678 C132.50836515583097 75.15149650722742, 130.7126415387541 92.36594695411623, 131.94007684849203 122.44955355860293 M133.97334120143205 62.15313432645053 C132.96259045574814 80.31650127191097, 132.65443524692208 100.55589799489826, 132.36415267456323 121.01375384163111 M131.89064075611532 120.11993844248354 C102.81971786916256 122.0286868903488, 73.02445072866976 123.4881783220619, 55.59302945993841 122.1250606868416 M133.31269503105432 122.10184402298182 C107.25605813693255 122.99642729189247, 81.65413792524487 123.10246696498245, 56.00874808896333 121.27900234889239 M56.52957054041326 121.89955628849566 C56.40079028733075 100.07458643242717, 58.29101408846677 76.73339076153934, 58.52574243210256 63.11294002272189 M57.74298838246614 122.79221002291888 C57.911479966677724 107.27413982991129, 57.37689767960459 94.26905009802431, 56.780690495856106 61.710925470106304" fill="none" stroke="#15803d" stroke-width="1.9" stroke-linecap="round" stroke-linejoin="round"/>
  <text x="95" y="89" font-size="16" fill="#15803d">utility</text>
  <text x="95" y="108" font-size="13" fill="#64748b">live</text>
  <path d="M47.17209949530661 146.41473794542253 L146.81536349095404 149.41107184253633 L146.8489110711962 208.78631771169603 L46.34226127900183 209.29419869743288" fill="#ecfdf5"/>
  <path d="M44.16629440151155 149.19705536402762 C65.47321903733537 148.43829702290148, 86.41692918036134 146.52762692125887, 146.63296866975725 149.03065785206854 M45.490188342519104 148.8814817396924 C70.18668383462355 148.61741291438042, 93.49827351160349 149.0388777450174, 144.66385890264064 148.13308936636895 M144.1151526030153 147.53130015172064 C144.04674508549272 168.66679231077433, 145.67473753668366 189.6312277223915, 146.5653531011194 209.15954413451254 M145.49756170529872 147.80107647459954 C144.81078420404344 166.96264456678182, 144.26067681435495 185.7935880785808, 144.08317093271762 207.74409321229905 M144.81342143379152 209.66603055037558 C124.93853339450433 209.96270081061868, 101.2803869171068 208.4421636130288, 46.47364962659776 207.5411255005747 M144.01476649660617 207.79355767648667 C107.86086239153519 207.67868304610252, 68.65414475649595 207.32930627822876, 46.81166131515056 207.703343632631 M44.286918764933944 207.85570212639868 C44.2190625257045 189.75987328216434, 47.193433303311465 171.00873476080596, 46.092660492286086 148.8146231416613 M46.56258518714458 208.54956865590066 C46.0415784529224 194.19767023716122, 45.89063907776028 180.18207839038223, 45.78124533314258 148.4934761254117" fill="none" stroke="#15803d" stroke-width="1.9" stroke-linecap="round" stroke-linejoin="round" stroke-dasharray="9 6"/>
  <text x="95.5" y="175" font-size="16" fill="#15803d">generator</text>
  <text x="95.5" y="194" font-size="13" fill="#64748b">shut down</text>
  <path d="M217.6354002226144 105.40414582006633 L411.5228804219514 104.96084801666439 L409.09461240656674 166.03547738306224 L217.52875779755414 165.66764573566616" fill="#fef2f2"/>
  <path d="M217.2845510672778 105.56456856615841 C257.90874382006007 103.53893109739572, 299.09364938717334 103.86885323704034, 410.52627859823406 105.99421535618603 M217.81796323601156 105.90336551424116 C274.0320120350458 106.23013221290708, 328.86153267398475 106.86481036809087, 411.0602133506909 105.55865120049566 M412.6274868082255 105.41571985371411 C409.9619764143974 128.4659035280347, 410.5166472847015 148.89607873372734, 412.8936112355441 163.5079509485513 M410.77130892220885 105.8529839431867 C411.33159640301017 126.2625869223848, 409.98106980193404 148.89373893570155, 411.08029430452734 164.8863738393411 M412.04189280979335 166.20782153494656 C368.2274559008889 166.77726763703674, 329.72605114225297 164.13576567389816, 219.83650348894298 166.85991476662457 M410.4737858111039 164.11488779541105 C354.37276984779163 165.74280683816968, 295.4573551189154 164.7721631091982, 217.26591881457716 164.16709845419973 M219.29015920870006 166.27516316063702 C219.04658337034286 153.09561356529593, 219.43736340202392 140.38162679038942, 217.3653923701495 103.8550994861871 M218.0993746155873 165.91206901427358 C218.0588068761304 151.1002628924325, 216.67276353616268 137.88030609767884, 217.870169156231 105.93534042593092" fill="none" stroke="#dc2626" stroke-width="1.9" stroke-linecap="round" stroke-linejoin="round"/>
  <text x="314.5" y="132" font-size="16" fill="#dc2626">UPS</text>
  <text x="314.5" y="151" font-size="13" fill="#64748b">battery full, passing through</text>
  <path d="M484.8829283416271 104.83397868275642 L563.9849953353405 106.70983222126961 L561.3111529052258 165.66188815236092 L482.0030026137829 163.93916991353035" fill="#eff6ff"/>
  <path d="M484.1484117805958 104.98506113886833 C499.74859519898894 106.06512590265274, 519.2794731974602 106.05467458581924, 563.0592365562916 103.40780875086784 M483.8039724677801 104.55499221384525 C503.8403857767582 105.83176016032695, 525.6348404675722 105.01034855067729, 561.6525685638189 104.13714410364628 M560.1352787315845 105.03965231776237 C560.4418000781536 116.4274491071701, 561.9710044467449 129.1496880352497, 561.9719152748585 165.32223269343376 M562.6397549957037 104.61339761316776 C562.4397847241163 119.05984078347683, 561.1530649250745 131.29145546257496, 561.7566463798285 164.07740069925785 M562.0857992470264 166.6154532134533 C544.3106663733721 164.30469695186616, 528.6009937047959 163.61583987331392, 485.2437553703785 166.31548354029655 M562.6643650382757 164.56476260721684 C540.4025157094002 165.15656308877467, 517.8156999498606 163.8848035787344, 483.2189853042364 164.63962079584599 M483.82516863942146 165.7153935134411 C484.93080862402917 146.01634794473648, 484.1706453168392 129.36072888970375, 484.48120215535164 105.10924097895622 M483.6448924392462 165.60293485224247 C484.3665572375059 144.30718843638897, 484.1625095576048 121.20774634182453, 483.6660501807928 104.90827704966068" fill="none" stroke="#1d4ed8" stroke-width="1.9" stroke-linecap="round" stroke-linejoin="round"/>
  <text x="523" y="132" font-size="16" fill="#1d4ed8">server</text>
  <text x="523" y="151" font-size="13" fill="#64748b">running</text>
  <path d="M57.092857867479324 302.34212109446526 L133.5273509323597 303.7568559348583 L132.1928315460682 365.17156025767326 L57.38519814610481 365.8997106254101" fill="#ecfdf5"/>
  <path d="M57.71598145365715 305.1407494843006 C74.53741606473923 304.14753962111473, 89.31682797074319 304.723847871542, 131.4542655646801 305.85307267308235 M57.561270490288734 303.08783672749996 C87.11648211181165 304.66766701686385, 114.54744141399861 304.07577906596663, 133.22454573214054 303.0470361560583 M133.96074292063713 304.0215220749378 C131.68889518857003 318.4547606706619, 131.08895107388497 333.44613525271416, 132.47438713908195 364.1415906250477 M132.11406828463078 303.1901674121618 C133.65951997101308 318.2637533098459, 133.6197932368517 332.77775363624096, 133.73658730089664 363.8056015819311 M131.396147698164 364.44553807377815 C107.29425272941589 365.6852623565197, 83.39056943058966 366.38919511866567, 55.477144211530685 362.22823479771614 M133.85401512682438 364.16418693959713 C113.00446318089962 363.9345998219252, 94.92616672813892 363.3497003964186, 56.17259432375431 364.30060194432735 M55.88450047373772 365.7223677933216 C57.213556991815565 344.5984248518944, 55.89126180291176 323.9486335217953, 58.54359146952629 302.7038255035877 M57.670271173119545 364.65979765355587 C56.04063228428364 344.66445787250996, 57.64284280598164 325.885899707675, 56.56235195696354 304.29131458699703" fill="none" stroke="#15803d" stroke-width="1.9" stroke-linecap="round" stroke-linejoin="round" stroke-dasharray="9 6"/>
  <text x="95" y="331" font-size="16" fill="#15803d">utility</text>
  <text x="95" y="350" font-size="13" fill="#64748b">dead</text>
  <path d="M44.86025032401085 389.14339032769203 L143.59450802206993 389.49673333764076 L143.8149412572384 450.0294281542301 L46.52643284201622 449.4397169649601" fill="#ecfdf5"/>
  <path d="M47.71605935692787 389.90121826529503 C66.56791456490755 388.8949993492365, 86.38720751702786 391.1814115883112, 143.0703388750553 391.32783779501915 M46.58129732310772 389.8030837327242 C76.64296900779009 390.692890781641, 106.93552142977714 390.5933782045841, 144.3877009600401 389.71304209530354 M146.50291791558266 389.3507030904293 C146.91141427397727 408.4652885198593, 143.53297627806663 427.4146822988987, 146.06584611535072 451.4578340947628 M145.66365997493267 389.5306499749422 C144.7497241061926 405.80851678550243, 144.84874077260494 420.770786061883, 145.99440138041973 450.74903424084187 M144.87904039025307 451.15867790579796 C107.58597796410322 451.3396364992857, 73.402931407094 447.57679336726665, 46.11253133416176 450.00003132224083 M144.8710684031248 450.34288723766804 C107.3256678327918 449.8414361000061, 71.11173393726348 450.6703598022461, 45.45612804591656 450.756904438138 M46.0797783434391 448.980416148901 C46.075246599912646 427.1352704167366, 47.95407178759575 406.7011049091816, 46.85199609398842 388.70345291495323 M46.609284326434135 450.7637213021517 C45.741409015059475 436.8834270089865, 46.17517299592495 423.9775742441416, 45.72551767528057 390.46370346844196" fill="none" stroke="#15803d" stroke-width="1.9" stroke-linecap="round" stroke-linejoin="round" stroke-dasharray="9 6"/>
  <text x="95.5" y="417" font-size="16" fill="#15803d">generator</text>
  <text x="95.5" y="436" font-size="13" fill="#64748b">cranking</text>
  <text x="95.5" y="468" font-size="13" fill="#64748b">* takes tens of seconds</text>
  <path d="M249.78077725879848 348.8990594614297 L381.4992626737803 345.9085260499269 L381.4609560202807 408.80805497057736 L250.62148473970592 406.6898703444749" fill="#fef2f2"/>
  <path d="M250.16076217778027 347.151083631441 C281.89111599046737 344.68074231773613, 311.86230117827654 346.0295702162385, 381.2675043810159 346.7039760183543 M250.61398100014776 346.4768581325188 C279.4903976880014 347.3198814835772, 309.3805997380987 346.71334387328477, 379.06064756866544 347.5187870496884 M379.32052438147366 348.0324181150645 C380.14594290547075 367.826971642673, 381.400391259715 385.52153241820633, 381.6135935653001 408.7749906014651 M380.69754775520414 346.32769145909697 C380.5979619045183 366.4616989037022, 380.2270725090429 386.97365987766534, 380.4474589144811 406.2892609173432 M378.69839762337506 405.3516779374331 C343.96708387788385 405.9951555044949, 305.0309227965772 406.1033103378117, 251.53014974482358 408.8583323787898 M380.5363625800237 407.75810032431036 C344.10608713515103 408.0497313640639, 308.07552234549075 406.61891969066113, 249.67457082029432 406.2080664271489 M251.3806245792657 407.1290657352656 C248.16753210984172 384.49027583375573, 248.69738253317774 363.45303126610816, 249.38661872036755 346.4722508620471 M249.77431585546583 407.00065919104964 C250.26164156716317 386.0402715532109, 249.867095326595 365.83460746426135, 250.29114710446447 346.96187960449606" fill="none" stroke="#dc2626" stroke-width="1.9" stroke-linecap="round" stroke-linejoin="round"/>
  <text x="315" y="374" font-size="16" fill="#dc2626">UPS</text>
  <text x="315" y="393" font-size="13" fill="#64748b">battery carries it</text>
  <path d="M470.4160460475832 348.95876288972795 L576.4434500578791 345.7777438815683 L577.4749071840197 407.2446798142046 L467.93931146897376 406.503918832168" fill="#eff6ff"/>
  <path d="M467.3823927100748 347.47850801981986 C490.2002194814384 346.87732068149745, 515.1269997287542 348.1081148132533, 576.5113442000002 347.0958782080561 M468.0814990820363 346.0421889750287 C501.6437114184722 346.40231525459143, 535.2294652054086 345.9704551950917, 576.6331374766305 346.1791344312951 M577.8891580160707 347.5465937498957 C577.5694189021737 366.13734475523233, 578.4297264168412 384.03018354438245, 578.4269287046045 406.2754999641329 M576.9360175253823 346.50196773093194 C576.5856103778258 364.5435430901125, 576.2038913548365 381.5608903532848, 577.2064793528989 407.9648437825963 M575.4339081700891 406.18127837218344 C544.3666228473187 407.71901209436356, 514.0819970551878 408.2022438176721, 468.40387452207506 407.4270550850779 M577.3943615378812 407.22579506319016 C552.7230315623805 408.3900341844186, 529.6104603225365 407.5764926826581, 468.40955622214824 407.68839931767434 M467.96433604322374 406.46514245308936 C471.2251539296657 392.16356648132205, 469.6789100832492 373.0860753636807, 469.59885889850557 346.5178897622973 M468.141376090236 406.36525178235024 C468.6533758333698 389.19058181438595, 469.3519771686569 371.2054899027571, 468.58834586758167 346.0433740345761" fill="none" stroke="#1d4ed8" stroke-width="1.9" stroke-linecap="round" stroke-linejoin="round"/>
  <text x="523" y="374" font-size="16" fill="#1d4ed8">server</text>
  <text x="523" y="393" font-size="13" fill="#64748b">never notices</text>
  <path d="M52.029015405103564 568.6026197541505 L140.0581525992602 566.0841188896447 L137.50292204134166 626.549857603386 L52.17637304775417 629.7033881414682" fill="#ecfdf5"/>
  <path d="M50.35000400431454 569.043292267248 C73.14955034600571 567.4451283204928, 92.8719959339127 567.4629454005137, 139.14322959072888 569.835574073717 M51.54643156286329 567.7979709738865 C82.28996938811615 566.9624234728068, 112.98995004631578 568.0939773313254, 138.36007677670568 568.2660883599892 M140.9571291077882 568.5791620444506 C139.72332066588103 588.5097607299685, 139.74905693821609 606.9327128548175, 140.1753901708871 629.2589388918132 M139.5553799783811 568.7469364339486 C138.0513430769369 580.5595120629296, 138.85528030347078 594.1311142193154, 139.9459819411859 627.4942829841748 M139.45710890181363 629.1037994455546 C109.75785318640992 629.714936048083, 77.17253675628453 628.6428368988559, 52.364870773628354 628.6771138142794 M138.2776147937402 627.7437086338177 C109.27942150598392 628.2444434088767, 78.08648696914315 627.9851338488162, 52.514796308241785 627.7325951391831 M53.863920437172055 629.3034227322787 C53.83624130450189 611.0421985127032, 52.31279468499124 590.1506470683962, 53.94635157473385 568.3368639778346 M51.40878420230001 627.4222292238846 C51.9935177366063 606.9720074562356, 50.75542653601617 586.7884416105226, 51.698691508732736 567.5378180379048" fill="none" stroke="#15803d" stroke-width="1.9" stroke-linecap="round" stroke-linejoin="round" stroke-dasharray="9 6"/>
  <text x="95.5" y="595" font-size="16" fill="#15803d">utility</text>
  <text x="95.5" y="614" font-size="13" fill="#64748b">still dead</text>
  <path d="M30.91706108674407 653.4557182230055 L158.97434270009398 652.4964762367308 L159.40442323312163 712.9138860143721 L30.191799756139517 712.3660286106169" fill="#ecfdf5"/>
  <path d="M31.84943253174424 655.9577398262918 C56.09880284406245 655.1859105187655, 85.24765206873417 653.4424452143908, 160.35464877262712 653.2509034834802 M29.1571844201535 654.4491452295333 C72.04270678013563 655.1355842172354, 113.2158859241754 654.9781601845473, 159.49374007992446 654.3273980338126 M161.0978118814528 654.477329608053 C160.98118952021002 670.5838326066732, 158.44144597753882 687.6062253452837, 159.0116623081267 713.9512755833566 M159.89520692639053 653.5335437972099 C159.51512463532387 671.2607900928706, 159.6399434968084 690.4631054345518, 159.00019329600036 714.3305912334472 M160.27762204781175 715.09386992082 C119.59236141853034 713.825041193068, 81.05389415472744 712.923899191916, 29.23352951183915 715.7030659876764 M160.44128721766174 713.3752837497741 C116.78299302235246 714.2083642294258, 73.69299525953829 714.7976862599701, 29.93451630882919 713.0367434937507 M29.091621819883585 713.6768676005304 C28.165256138294936 692.0797373130918, 29.972764487713576 668.4441510625184, 29.383165422827005 654.778125282377 M29.669631836935878 714.7984007317573 C29.543690210804343 694.0978021230549, 29.6736550989002 672.9763985369354, 29.184587536379695 653.2249685842544" fill="none" stroke="#15803d" stroke-width="1.9" stroke-linecap="round" stroke-linejoin="round"/>
  <text x="95" y="681" font-size="16" fill="#15803d">generator</text>
  <text x="95" y="700" font-size="13" fill="#64748b">carrying the load</text>
  <path d="M234.46117064543068 609.1682255845517 L393.41719189472497 611.2699502687901 L393.76942476816475 669.9029840808362 L236.9445660430938 669.1474661808461" fill="#fef2f2"/>
  <path d="M234.1421133261174 611.9523650128394 C273.4239677917212 612.2153934592753, 311.6934912484139 613.4278977865725, 394.86500817351043 610.8095435220748 M235.48845090065151 611.0134253492579 C270.8578666159883 610.5492149844393, 306.8273962000385 609.1798846080527, 394.27513246331364 610.9191366126761 M393.1258957963437 610.1159853059798 C394.26256903894244 632.63538069278, 395.79898419864475 654.7921376060694, 396.87778043560684 669.339407177642 M394.3055887678638 611.0754135539755 C395.00523364502936 633.398264461197, 394.87175497371703 656.820937412791, 394.5306105175987 671.1002950062975 M394.0840568523854 669.5083214957267 C356.7429364155978 669.8955758280307, 318.79903086833656 670.1733076638728, 236.08044642023742 669.2291512805969 M395.8070003548637 671.7141296258196 C351.85944241378456 671.6818607106433, 309.40195195470005 670.6427400663123, 235.79278050456196 671.3077357104048 M234.1583811622113 669.2170811016113 C235.9940690217167 649.4421753846109, 236.11753938771784 627.2173509206623, 235.94096267037094 612.2090614754707 M235.26993785891682 671.1703877737746 C235.42485099900514 657.7281615780666, 234.26636889446527 642.81904600095, 235.25393368396908 610.6328588714823" fill="none" stroke="#dc2626" stroke-width="1.9" stroke-linecap="round" stroke-linejoin="round"/>
  <text x="315" y="638" font-size="16" fill="#dc2626">UPS</text>
  <text x="315" y="657" font-size="13" fill="#64748b">recharging the battery</text>
  <path d="M485.1689965184778 611.6309434417635 L562.2708773668855 610.5213769320399 L562.3858864959329 670.1270451787859 L485.59782517515123 671.6190297249705" fill="#eff6ff"/>
  <path d="M482.73892887867987 609.83590275608 C499.94899964760987 610.9632544107735, 518.1623300753533 612.1192219443619, 563.6970221046358 611.9540128763765 M483.00353271048516 610.5274678291753 C504.5062488455325 611.4449541285262, 524.2122759470716 612.169692815803, 561.8601160375401 610.6612480999902 M560.4821950439364 609.0369658526033 C560.6995278634876 630.4707574471831, 561.2428792157024 649.2260879669338, 561.4708306435496 671.4659947808832 M561.474338802509 610.8083359124139 C561.8221169393883 622.3989219022915, 561.5073242169246 635.1416198993102, 561.1519393948838 670.2665304364637 M560.341437542811 670.5316290315241 C532.4775321090594 670.9337555739284, 505.9138834044337 671.9779715511203, 482.8382156137377 670.5058907326311 M561.5805008439347 671.3562375726178 C535.2228039778769 672.0581205917522, 508.09472423065455 670.9941000474616, 484.2011584965512 671.1217870237306 M483.0808775667101 672.041022663936 C483.18320366077126 649.3904742486775, 484.8332406514138 623.6375145632774, 482.0106638316065 611.7538154777139 M484.74215433280915 671.5317990304902 C484.21093000080435 654.3985235383734, 483.1205349376425 637.657655463554, 484.1886510280892 611.3737768949941" fill="none" stroke="#1d4ed8" stroke-width="1.9" stroke-linecap="round" stroke-linejoin="round"/>
  <text x="523" y="638" font-size="16" fill="#1d4ed8">server</text>
  <text x="523" y="657" font-size="13" fill="#64748b">running</text>
  <path d="M137.33041870575397 92.84134545046837 C154.29850613569087 101.81323456364282, 167.87332401621336 109.16875914950455, 215.32737898211926 133.71084587890655 M136.86819339552895 92.56339557757602 C167.53243304580164 108.29045887136078, 196.42562359260106 124.90246146789929, 213.5252091393806 134.37036704113706" fill="none" stroke="#131A2E" stroke-width="1.7" stroke-linecap="round" stroke-linejoin="round"/>
  <path d="M214.1342455624137 135.1675432720687 C212.83160335499718 133.0830747579401, 211.85043698630656 131.73193758208683, 208.89973063925837 127.50092853169926 M213.9356666591717 135.01530487679412 C212.63600836807217 133.29699485886042, 211.53581859008523 131.55931348746958, 208.47975628295072 127.86877520521675" fill="none" stroke="#131A2E" stroke-width="1.7" stroke-linecap="round" stroke-linejoin="round"/>
  <path d="M214.10430671102367 135.38924782373942 C212.22955489351332 134.76984219899907, 210.70454015371482 134.67802790337524, 205.3616356524059 133.90370237133416 M213.82411621187347 135.06366334471386 C211.40807211623488 134.8174959276422, 208.60039369158767 134.52138766149295, 205.02414594684984 134.28812547416842" fill="none" stroke="#131A2E" stroke-width="1.7" stroke-linecap="round" stroke-linejoin="round"/>
  <path d="M415.1990221502259 135.1982135562226 C429.7478640670888 133.82325691098302, 443.969338010624 136.06298403257458, 480.4746410669759 133.99894399326294 M414.8305179162882 135.53033714899794 C435.98004940208045 135.1517939471011, 458.21463175686074 134.56208037066506, 480.3995233668946 135.392443367932" fill="none" stroke="#131A2E" stroke-width="1.7" stroke-linecap="round" stroke-linejoin="round"/>
  <path d="M479.9529820825439 135.19810647633858 C478.4588932943062 134.18166545497127, 476.61946503697703 133.43050834088905, 471.4286618178184 131.51090417470851 M479.8700845008949 135.04894269683865 C476.9982199736942 133.57695935493342, 474.0548659221827 132.23444193513745, 471.89204678909715 131.41685276978254" fill="none" stroke="#131A2E" stroke-width="1.7" stroke-linecap="round" stroke-linejoin="round"/>
  <path d="M479.6766132997815 135.30059375069104 C478.17161215825183 135.80478179511238, 476.0279329792462 136.73277186463426, 471.83670702543435 139.10080915890563 M479.842585066217 135.1237313607009 C478.0270205372748 135.97945403377852, 476.5944013013232 136.36833179872198, 471.68766249610906 138.72233409596072" fill="none" stroke="#131A2E" stroke-width="1.7" stroke-linecap="round" stroke-linejoin="round"/>
  <path d="M384.5529675439 376.89631159752605 C404.7052758447826 377.9230623760752, 424.08404441177845 377.5316018143229, 464.3949647381902 378.1428771778941 M384.63222335800526 376.45371427312494 C405.610576890409 376.455631763602, 425.67148886397484 376.8198278495319, 465.0429550312459 377.08231327310205" fill="none" stroke="#131A2E" stroke-width="1.7" stroke-linecap="round" stroke-linejoin="round"/>
  <path d="M464.7042933980003 376.94661487247794 C463.0671135780634 376.39757501845315, 461.41764036546425 375.899346759774, 457.1584593031495 373.7653185909528 M465.014635368716 376.96388328867033 C462.92271224422313 376.20267373309406, 461.2296012784448 375.30489471904394, 456.9633642245955 373.4807817106049" fill="none" stroke="#131A2E" stroke-width="1.7" stroke-linecap="round" stroke-linejoin="round"/>
  <path d="M465.33324265955014 377.25641914578154 C463.07723927204796 377.87140777103434, 461.3159634800432 378.2133580823706, 456.76898015858 380.65721923234804 M465.1809845967684 377.0074706071522 C462.90579612686724 377.8070147551261, 460.4834113178594 378.9307044754513, 456.8144738965142 380.68544305205273" fill="none" stroke="#131A2E" stroke-width="1.7" stroke-linecap="round" stroke-linejoin="round"/>
  <path d="M164.76612557470798 683.2476167291403 C178.52810155541152 674.4285131121352, 191.7873575830504 666.7880791703537, 231.14400118887426 639.6813881486654 M164.29832013100386 683.8110436871648 C178.68887831818608 674.6831162050173, 192.88817682069094 664.4196268498704, 231.5763829037547 641.379147143662" fill="none" stroke="#131A2E" stroke-width="1.7" stroke-linecap="round" stroke-linejoin="round"/>
  <path d="M231.14628127506003 640.7434284226038 C229.03413316597616 641.5315741312158, 227.4941311135859 641.8959683248042, 222.04715889732117 642.2686538141688 M231.16485029985196 641.13882415439 C227.88395797504103 641.4361408908377, 225.2250520920656 641.9766019083069, 221.9013494802429 642.352282028925" fill="none" stroke="#131A2E" stroke-width="1.7" stroke-linecap="round" stroke-linejoin="round"/>
  <path d="M230.60773876681924 641.2580131314695 C230.32466470076412 642.8550778322549, 228.50161290549718 644.2031187997961, 226.34305540007813 648.7273488987668 M231.14392833821475 641.0148139644414 C229.86046300771602 642.9053894961818, 228.84677485957323 644.6287560934152, 226.05796855707928 648.7503505006863" fill="none" stroke="#131A2E" stroke-width="1.7" stroke-linecap="round" stroke-linejoin="round"/>
  <path d="M398.75482463873925 641.7401365812868 C417.58907809462397 640.4981188752091, 438.8741620101035 640.3492802717126, 481.1736070279032 639.7848439153283 M399.442773684673 640.3285328509286 C426.0272173266858 640.4720366625705, 451.90007325354964 640.4632744877258, 479.5051910189912 641.4756777228788" fill="none" stroke="#131A2E" stroke-width="1.7" stroke-linecap="round" stroke-linejoin="round"/>
  <path d="M480.1120938473381 641.0821048579179 C477.9725400588139 640.1268700560039, 476.36925536972717 639.8006806298754, 471.71159796295086 637.6215658611532 M480.0115374680143 640.8251185175498 C478.01854144048747 640.3487171485665, 476.1731924298287 639.5871810965936, 471.8678136502798 637.2090089168779" fill="none" stroke="#131A2E" stroke-width="1.7" stroke-linecap="round" stroke-linejoin="round"/>
  <path d="M479.56721353107133 640.7643583436962 C478.6023335083642 642.2166024622546, 475.97114557407315 642.6127059080458, 471.7857794132489 644.6740413536869 M480.16198400433643 640.9298733228119 C477.1528202568366 642.1863817789431, 474.71927447583573 643.182899722263, 471.7032152180267 644.8677737818418" fill="none" stroke="#131A2E" stroke-width="1.7" stroke-linecap="round" stroke-linejoin="round"/>
</svg>
